<?xml version="1.0" encoding="UTF-8"?>
<!DOCTYPE svg PUBLIC "-//W3C//DTD SVG 1.1//EN" "http://www.w3.org/Graphics/SVG/1.1/DTD/svg11.dtd">
<!-- Creator: CorelDRAW 2017 -->
<svg xmlns="http://www.w3.org/2000/svg" xml:space="preserve" width="140mm" height="140mm" version="1.1" style="shape-rendering:geometricPrecision; text-rendering:geometricPrecision; image-rendering:optimizeQuality; fill-rule:evenodd; clip-rule:evenodd"
viewBox="0 0 14000 14000"
 xmlns:xlink="http://www.w3.org/1999/xlink">
 <defs>
  <style type="text/css">
   <![CDATA[
    .str0 {stroke:#FFF200;stroke-width:41.34;stroke-miterlimit:22.9256}
    .fil0 {fill:#FFF200}
   ]]>
  </style>
 </defs>
 <g id="Camada_x0020_1">
  <metadata id="CorelCorpID_0Corel-Layer"/>
  <g id="SVGRepo_bgCarrier">
  </g>
  <g id="SVGRepo_tracerCarrier">
  </g>
  <g id="_1907913673872">
   <g>
    <path class="fil0 str0" d="M12596.47 9864.72l-4297.03 -2864.72 4297.03 -2864.72c99.11,-66.05 168.09,-168.98 191.19,-285.76 23.38,-116.94 -0.59,-238.26 -66.94,-337.37 -1170.81,-1752.25 -3126.25,-2798.5 -5230.77,-2798.5 -3466.19,-0.01 -6286.35,2819.99 -6286.35,6286.35 0,3466.36 2820.16,6286.36 6286.36,6286.36 2104.51,0 4059.96,-1046.26 5230.74,-2798.51 66.38,-99.1 90.34,-220.4 66.94,-337.36 -23.1,-116.79 -92.09,-219.68 -191.17,-285.77zm-3759.43 -6905.96c247.97,0 449.03,201.05 449.03,449.04 0,247.97 -201.04,449.03 -449.03,449.03 -247.98,0 -449.04,-201.04 -449.04,-449.03 0,-248 201.06,-449.04 449.04,-449.04z"/>
   </g>
  </g>
 </g>
</svg>
